HIERARCHY
ROOT Hips
{
	OFFSET 0.0000 0.0000 0.0000
	CHANNELS 6 Xposition Yposition Zposition Zrotation Xrotation Yrotation
	JOINT Spine1
	{
		OFFSET -0.0137 5.0038 -0.0537
		CHANNELS 3 Zrotation Xrotation Yrotation
		JOINT Spine2
		{
			OFFSET -0.0000 7.1253 -0.0298
			CHANNELS 3 Zrotation Xrotation Yrotation
			JOINT Chest
			{
				OFFSET -0.0000 7.5501 -0.8160
				CHANNELS 3 Zrotation Xrotation Yrotation
				JOINT Neck1
				{
					OFFSET -0.1817 26.3113 -0.5533
					CHANNELS 3 Zrotation Xrotation Yrotation
					JOINT Neck2
					{
						OFFSET -0.0000 7.7094 2.3026
						CHANNELS 3 Zrotation Xrotation Yrotation
						JOINT Head
						{
							OFFSET -0.0000 6.1289 1.9537
							CHANNELS 3 Zrotation Xrotation Yrotation
							JOINT Jaw
							{
								OFFSET 0.0026 0.4756 3.0949
								CHANNELS 3 Zrotation Xrotation Yrotation
								End Site
								{
									OFFSET 0.0 1.0 0.0
								}
							}
							JOINT LeftEye
							{
								OFFSET 3.2064 5.3802 7.5869
								CHANNELS 3 Zrotation Xrotation Yrotation
								End Site
								{
									OFFSET 0.0 1.0 0.0
								}
							}
							JOINT RightEye
							{
								OFFSET -3.2224 5.3619 7.5582
								CHANNELS 3 Zrotation Xrotation Yrotation
								End Site
								{
									OFFSET 0.0 1.0 0.0
								}
							}
						}
					}
				}
				JOINT LeftShoulder
				{
					OFFSET 1.6217 23.2372 5.1134
					CHANNELS 3 Zrotation Xrotation Yrotation
					JOINT LeftArm
					{
						OFFSET 14.9198 0.0000 -5.5023
						CHANNELS 3 Zrotation Xrotation Yrotation
						JOINT LeftForeArm
						{
							OFFSET 28.7393 0.0000 -0.0026
							CHANNELS 3 Zrotation Xrotation Yrotation
							JOINT LeftHand
							{
								OFFSET 27.0940 -0.0000 0.0026
								CHANNELS 3 Zrotation Xrotation Yrotation
								JOINT LeftHandThumbEnd
								{
									OFFSET 12.2686 -3.2202 4.8331
									CHANNELS 3 Zrotation Xrotation Yrotation
									End Site
									{
										OFFSET 0.0 1.0 0.0
									}
								}
								JOINT LeftHandMiddleEnd
								{
									OFFSET 19.0120 -0.3129 -0.0340
									CHANNELS 3 Zrotation Xrotation Yrotation
									End Site
									{
										OFFSET 0.0 1.0 0.0
									}
								}
							}
						}
					}
				}
				JOINT RightShoulder
				{
					OFFSET -1.3801 23.1803 5.2142
					CHANNELS 3 Zrotation Xrotation Yrotation
					JOINT RightArm
					{
						OFFSET -15.0372 0.0000 -5.5456
						CHANNELS 3 Zrotation Xrotation Yrotation
						JOINT RightForeArm
						{
							OFFSET -28.7366 0.0000 -0.0026
							CHANNELS 3 Zrotation Xrotation Yrotation
							JOINT RightHand
							{
								OFFSET -27.1336 -0.0000 0.0026
								CHANNELS 3 Zrotation Xrotation Yrotation
								JOINT RightHandThumbEnd
								{
									OFFSET -12.2642 -3.2115 4.8040
									CHANNELS 3 Zrotation Xrotation Yrotation
									End Site
									{
										OFFSET 0.0 1.0 0.0
									}
								}
								JOINT RightHandMiddleEnd
								{
									OFFSET -19.0006 -0.3066 -0.0316
									CHANNELS 3 Zrotation Xrotation Yrotation
									End Site
									{
										OFFSET 0.0 1.0 0.0
									}
								}
							}
						}
					}
				}
			}
		}
	}
	JOINT LeftLeg
	{
		OFFSET 10.0432 -8.4345 2.5957
		CHANNELS 3 Zrotation Xrotation Yrotation
		JOINT LeftShin
		{
			OFFSET -0.0000 -43.2218 -0.8029
			CHANNELS 3 Zrotation Xrotation Yrotation
			JOINT LeftFoot
			{
				OFFSET 0.0000 -42.1551 -3.4815
				CHANNELS 3 Zrotation Xrotation Yrotation
				JOINT LeftToeBase
				{
					OFFSET 0.0000 -5.0595 13.2315
					CHANNELS 3 Zrotation Xrotation Yrotation
					End Site
					{
						OFFSET 0.0 1.0 0.0
					}
				}
			}
		}
	}
	JOINT RightLeg
	{
		OFFSET -10.0473 -8.2953 2.6203
		CHANNELS 3 Zrotation Xrotation Yrotation
		JOINT RightShin
		{
			OFFSET 0.0000 -43.3622 -0.8056
			CHANNELS 3 Zrotation Xrotation Yrotation
			JOINT RightFoot
			{
				OFFSET 0.0000 -42.1174 -3.4784
				CHANNELS 3 Zrotation Xrotation Yrotation
				JOINT RightToeBase
				{
					OFFSET -0.0000 -5.0796 13.2842
					CHANNELS 3 Zrotation Xrotation Yrotation
					End Site
					{
						OFFSET 0.0 1.0 0.0
					}
				}
			}
		}
	}
}
MOTION
Frames: 9
Frame Time: 0.033333
3.9004 87.2499 1.0267 -2.5310 -2.4995 0.9296 1.7937 7.9988 0.7738 0.1027 -1.5051 -0.2288 -0.8695 14.5898 -1.5262 -15.5502 3.8154 6.7740 4.1244 -4.0686 17.2129 -4.4090 -21.1207 22.5745 -0.0030 0.0354 -0.3546 0.6441 -10.7323 -4.2646 -0.6632 -10.7419 3.6064 -5.3427 10.6205 -17.0398 -82.3237 -6.5425 31.9369 0.9860 -0.6863 -99.7580 30.8666 12.0074 -15.2423 -14.5464 10.7649 15.9461 -59.1820 1.7779 2.5036 -7.3491 12.9161 16.7297 80.3822 12.9653 2.2812 0.0010 1.0548 58.5602 -11.5908 -6.4822 -0.3328 15.7560 6.8177 -15.8365 49.7325 -3.4900 -5.0105 31.1582 -30.5090 11.6423 -0.3942 34.1042 -1.1708 -29.0086 -0.9237 -3.6488 1.5415 -0.7503 -1.7447 -23.3408 -8.8194 4.6590 0.2304 33.8637 1.6315 28.9824 -19.8995 -1.6008 -1.4220 -1.0524 1.3507
3.8888 87.3934 1.0301 -2.6025 -2.4726 1.0556 1.8367 7.9219 0.7446 0.1070 -1.5268 -0.1787 -0.9356 14.4837 -1.5884 -15.4590 3.9008 6.8688 4.1441 -4.0714 17.2069 -4.3072 -20.6567 22.5477 -0.0052 0.0300 -0.3254 0.6519 -10.7098 -4.2341 -0.6753 -10.7096 3.6328 -5.3417 10.6867 -17.1961 -82.5925 -6.6077 32.4541 0.7164 -0.8535 -99.4522 30.8690 12.1146 -15.2796 -14.7082 10.7322 15.8877 -59.3423 1.7457 2.4666 -7.4969 12.9109 16.8967 80.4455 13.0231 2.2121 -0.2059 1.1776 58.4142 -10.5132 -8.4730 0.1899 15.8110 6.9223 -15.8586 49.9656 -3.4404 -4.9551 31.1477 -30.5243 11.6965 -0.4493 33.9330 -1.2328 -28.8384 -0.8106 -3.7287 1.5474 -0.8452 -1.7616 -23.1085 -8.5863 4.4690 0.1738 33.4477 1.6174 28.8805 -19.7553 -1.8615 -1.4271 -1.0269 1.3066
3.9135 87.4849 1.0558 -2.6910 -2.4087 1.2966 1.8850 7.8204 0.7335 0.1003 -1.5609 -0.1543 -0.9593 14.3478 -1.6367 -15.3547 4.0324 6.9251 4.1613 -4.0926 17.1955 -4.2304 -20.1113 22.4888 -0.0040 0.0296 -0.3265 0.6528 -10.6913 -4.2300 -0.6740 -10.6860 3.6235 -5.4234 10.6533 -17.2962 -82.6502 -6.6259 32.7603 0.4211 -0.8931 -99.2164 30.9341 11.9760 -15.2806 -14.7534 10.6699 15.8635 -59.3576 1.7161 2.4793 -7.5586 12.8837 17.0529 80.3604 13.0972 2.1327 -0.3402 1.1589 58.1499 -9.5273 -10.3924 0.6484 15.8241 6.9892 -15.8469 50.1012 -3.4383 -4.9554 31.1942 -30.4822 11.5031 -0.4562 33.6548 -1.2455 -28.7699 -0.6745 -3.7696 1.5574 -0.7939 -1.7681 -22.9004 -8.3334 4.2319 0.1409 33.0123 1.5915 28.9357 -19.7143 -2.1610 -1.4317 -0.8911 1.2930
3.8564 87.5666 1.0930 -2.8012 -2.3089 1.5825 1.9462 7.7035 0.7452 0.0933 -1.6335 -0.1332 -0.9488 14.2069 -1.6287 -15.2083 4.2601 6.9404 4.1642 -4.1109 17.1530 -4.1535 -19.5511 22.2778 -0.0016 0.0283 -0.3323 0.6538 -10.6782 -4.2260 -0.6700 -10.6668 3.6073 -5.5342 10.6353 -17.3385 -82.5919 -6.7336 32.7424 0.2154 -0.8803 -98.9543 30.8792 11.8161 -15.2892 -14.7817 10.6037 15.8125 -59.3203 1.7035 2.4737 -7.4746 12.8294 17.1960 79.9753 13.1763 2.1268 -0.3968 1.0864 57.7239 -8.5556 -11.9364 0.8684 15.8270 7.0532 -15.8606 50.1764 -3.4212 -4.9438 31.2680 -30.3916 11.1279 -0.4672 33.3682 -1.2652 -28.7314 -0.5413 -3.7123 1.5603 -0.7318 -1.7641 -22.6709 -8.0300 3.9978 0.0952 32.4983 1.5592 29.0119 -19.7134 -2.5030 -1.4338 -0.7276 1.2970
3.8086 87.6559 1.1749 -2.9084 -2.2092 1.9296 2.0125 7.5651 0.7645 0.0914 -1.7080 -0.0994 -0.9400 14.0818 -1.6078 -15.0157 4.5730 6.9198 4.1491 -4.1168 17.1000 -4.0858 -19.0100 21.9904 -0.0003 0.0307 -0.3340 0.6549 -10.6660 -4.2187 -0.6687 -10.6528 3.5943 -5.6527 10.6298 -17.3347 -82.4271 -6.9542 32.5543 0.0015 -0.8875 -98.7205 30.7239 11.6866 -15.2996 -14.7835 10.5260 15.7366 -59.2279 1.7034 2.4204 -7.2868 12.7660 17.3628 79.3200 13.1803 2.1397 -0.4419 1.0100 57.0468 -7.5017 -13.2390 0.8317 15.8284 7.0894 -15.8933 50.1683 -3.4334 -4.9418 31.3264 -30.3124 10.7230 -0.4730 33.0858 -1.2904 -28.6586 -0.4184 -3.6466 1.5591 -0.6481 -1.7567 -22.4355 -7.6673 3.8083 0.0612 31.9664 1.5549 29.1060 -19.7210 -2.9169 -1.4342 -0.5800 1.3055
3.7433 87.7430 1.2868 -2.9813 -2.1054 2.2656 2.0463 7.3946 0.7823 0.0886 -1.7819 -0.0475 -0.9357 13.9500 -1.5873 -14.7787 4.9976 6.9175 4.1367 -4.1142 16.9676 -4.0141 -18.3972 21.6228 0.0019 0.0379 -0.3380 0.6564 -10.6329 -4.2118 -0.6659 -10.6247 3.5788 -5.7218 10.6373 -17.2618 -82.1409 -7.2297 32.1859 -0.1123 -0.8732 -98.5018 30.4731 11.3950 -15.2699 -14.7612 10.4886 15.6940 -59.1310 1.7248 2.3747 -6.9499 12.6925 17.6063 78.3060 13.0708 2.0318 -0.4493 0.9123 56.0872 -6.2971 -14.2671 0.4635 15.8208 7.1031 -15.9244 50.0868 -3.4858 -4.9836 31.3295 -30.1819 10.3532 -0.4770 32.7770 -1.3235 -28.5820 -0.3140 -3.6003 1.5584 -0.5980 -1.7552 -22.2378 -7.3009 3.6381 0.0419 31.4507 1.5572 29.1124 -19.7132 -3.2678 -1.4346 -0.4808 1.3065
3.7134 87.8301 1.4512 -3.0250 -2.0358 2.5820 2.0609 7.1943 0.8144 0.0760 -1.8580 0.0047 -0.9437 13.8019 -1.5450 -14.5204 5.6174 6.9591 4.1165 -4.1220 16.7689 -3.9199 -17.7217 21.1774 0.0039 0.0409 -0.3245 0.6547 -10.6112 -4.1897 -0.6601 -10.6084 3.5830 -5.7248 10.6704 -17.1575 -81.7433 -7.4904 31.7383 -0.1722 -0.8408 -98.3240 30.1545 10.9581 -15.1985 -14.7741 10.4427 15.6167 -59.0926 1.7716 2.3261 -6.4988 12.6364 17.9672 77.0293 12.8846 1.7545 -0.5002 0.8373 54.9456 -5.0239 -14.9190 -0.3321 15.8025 7.1107 -15.9344 49.9677 -3.5577 -5.0210 31.3271 -29.9797 9.9705 -0.4861 32.4882 -1.3452 -28.5227 -0.2092 -3.4840 1.5572 -0.5601 -1.7554 -22.1013 -6.8785 3.5193 0.0146 30.9381 1.5586 29.1056 -19.7222 -3.5645 -1.4357 -0.4368 1.2963
3.6678 87.9263 1.6284 -3.0405 -1.9896 2.8552 2.0479 6.9574 0.8392 0.0408 -1.9639 0.0735 -0.9523 13.6466 -1.5058 -14.1901 6.4163 6.9974 4.0720 -4.1044 16.4817 -3.7861 -16.9247 20.6320 0.0059 0.0437 -0.3119 0.6540 -10.5992 -4.1713 -0.6557 -10.6048 3.5879 -5.6534 10.6968 -16.9971 -81.1284 -7.7250 31.2275 -0.1139 -0.8061 -98.1874 29.7939 10.2129 -15.1080 -14.7730 10.4173 15.5728 -59.0912 1.8060 2.2926 -5.8922 12.5814 18.3300 75.3923 12.5397 1.0417 -0.5402 0.7628 53.8522 -3.8031 -15.1351 -1.6379 15.7550 7.1247 -15.9177 49.8226 -3.6275 -5.0155 31.3209 -29.6862 9.5399 -0.4933 32.2079 -1.3593 -28.5337 -0.0897 -3.2795 1.5570 -0.5001 -1.7677 -21.9717 -6.4034 3.4072 -0.0126 30.3895 1.5598 29.0339 -19.7208 -3.8116 -1.4362 -0.4516 1.2829
3.6286 88.0335 1.8301 -3.0276 -1.9734 3.1026 1.9814 6.6589 0.8503 -0.0145 -2.0793 0.1574 -0.9818 13.4571 -1.5155 -13.7690 7.3393 7.0663 4.0147 -4.0725 16.1581 -3.5721 -16.0365 19.9723 0.0066 0.0474 -0.2903 0.6562 -10.5751 -4.1419 -0.6567 -10.5870 3.6011 -5.5224 10.6729 -16.7708 -80.3022 -7.8990 30.8485 0.0131 -0.7345 -98.1587 29.3981 9.2475 -15.1017 -14.7757 10.4192 15.5495 -59.1639 1.8473 2.2763 -5.0982 12.4830 18.6707 73.4537 11.9887 -0.4745 -0.6097 0.6584 53.1358 -2.9853 -14.8865 -3.3778 15.7738 7.1437 -15.8639 49.7327 -3.6809 -4.9861 31.3001 -29.2157 9.0673 -0.4805 31.8356 -1.3384 -28.6308 0.0864 -2.9624 1.5561 -0.4490 -1.7895 -21.8791 -5.8629 3.3119 -0.0234 29.8152 1.5971 28.9508 -19.7150 -4.0572 -1.4381 -0.4866 1.2695
